<svg xmlns="http://www.w3.org/2000/svg" xmlns:xlink="http://www.w3.org/1999/xlink" width="48" zoomAndPan="magnify" viewBox="0 0 36 36.000001" height="48" preserveAspectRatio="xMidYMid meet" version="1.0"><defs><clipPath id="fb90353fa2"><path d="M 4.601562 26 L 13 26 L 13 35.027344 L 4.601562 35.027344 Z M 4.601562 26 " clip-rule="nonzero"/></clipPath><clipPath id="5f1c6a7e0e"><path d="M 23 26 L 31.601562 26 L 31.601562 35.027344 L 23 35.027344 Z M 23 26 " clip-rule="nonzero"/></clipPath><clipPath id="8bc8dc9aae"><path d="M 4.601562 7 L 8 7 L 8 10 L 4.601562 10 Z M 4.601562 7 " clip-rule="nonzero"/></clipPath><clipPath id="5d5f76cf38"><path d="M 28 7 L 31.601562 7 L 31.601562 10 L 28 10 Z M 28 7 " clip-rule="nonzero"/></clipPath></defs><path fill="#F4655A" d="M 7.789062 27.984375 C 7.710938 27.984375 7.628906 27.960938 7.558594 27.914062 C 7.367188 27.789062 7.3125 27.53125 7.441406 27.339844 L 7.742188 26.882812 C 7.925781 26.605469 8.097656 26.328125 8.253906 26.054688 C 8.523438 25.578125 8.769531 25.078125 8.984375 24.566406 C 8.988281 24.5625 8.988281 24.558594 8.992188 24.554688 C 9.175781 24.121094 9.335938 23.667969 9.476562 23.210938 C 9.871094 21.910156 10.070312 20.5625 10.070312 19.199219 C 10.070312 17.402344 10.394531 15.640625 11.035156 13.960938 L 13.566406 7.34375 C 13.773438 6.796875 14.308594 6.433594 14.898438 6.433594 C 15.035156 6.433594 15.171875 6.453125 15.304688 6.492188 C 15.976562 6.691406 16.40625 7.359375 16.308594 8.046875 L 15.402344 14.257812 C 15.378906 14.460938 15.203125 14.621094 14.988281 14.621094 C 14.757812 14.621094 14.570312 14.433594 14.570312 14.203125 C 14.570312 14.183594 14.570312 14.164062 14.574219 14.144531 L 15.480469 7.929688 C 15.519531 7.644531 15.34375 7.371094 15.066406 7.289062 C 15.011719 7.269531 14.953125 7.261719 14.898438 7.261719 C 14.65625 7.261719 14.433594 7.414062 14.347656 7.640625 L 11.820312 14.253906 C 11.214844 15.839844 10.90625 17.503906 10.90625 19.199219 C 10.90625 20.640625 10.695312 22.070312 10.277344 23.449219 C 10.132812 23.929688 9.960938 24.40625 9.769531 24.863281 C 9.765625 24.867188 9.765625 24.871094 9.765625 24.875 C 9.535156 25.421875 9.273438 25.957031 8.980469 26.464844 C 8.820312 26.753906 8.636719 27.046875 8.441406 27.339844 L 8.140625 27.796875 C 8.058594 27.917969 7.925781 27.984375 7.789062 27.984375 Z M 7.789062 27.984375 " fill-opacity="1" fill-rule="nonzero"/><path fill="#F4655A" d="M 11.164062 32.367188 C 10.964844 32.367188 10.789062 32.226562 10.75 32.023438 C 10.710938 31.800781 10.863281 31.585938 11.089844 31.542969 C 11.492188 31.476562 11.882812 31.359375 12.261719 31.199219 C 12.429688 31.128906 12.597656 31.050781 12.761719 30.960938 C 13.1875 30.726562 13.578125 30.4375 13.929688 30.097656 C 13.933594 30.089844 13.9375 30.085938 13.941406 30.082031 C 14.996094 29.050781 15.597656 27.605469 15.597656 26.117188 L 15.597656 15.496094 C 15.597656 15.070312 15.308594 14.707031 14.890625 14.609375 C 14.824219 14.589844 14.75 14.582031 14.679688 14.582031 C 14.433594 14.582031 14.199219 14.679688 14.027344 14.851562 C 13.851562 15.023438 13.757812 15.253906 13.757812 15.496094 L 13.757812 22.054688 C 13.757812 22.285156 13.570312 22.472656 13.339844 22.472656 C 13.109375 22.472656 12.921875 22.285156 12.921875 22.054688 L 12.921875 15.496094 C 12.921875 15.03125 13.101562 14.59375 13.433594 14.261719 C 13.765625 13.933594 14.207031 13.753906 14.679688 13.753906 C 14.816406 13.753906 14.953125 13.769531 15.085938 13.800781 C 15.878906 13.988281 16.4375 14.683594 16.4375 15.496094 L 16.4375 26.117188 C 16.4375 27.820312 15.746094 29.472656 14.542969 30.660156 C 14.539062 30.664062 14.535156 30.667969 14.53125 30.675781 C 14.121094 31.074219 13.664062 31.414062 13.164062 31.6875 C 12.976562 31.789062 12.78125 31.882812 12.585938 31.964844 C 12.152344 32.148438 11.699219 32.28125 11.238281 32.363281 C 11.210938 32.367188 11.1875 32.367188 11.164062 32.367188 Z M 11.164062 32.367188 " fill-opacity="1" fill-rule="nonzero"/><path fill="#F4655A" d="M 12.960938 31.738281 C 12.828125 31.738281 12.710938 31.675781 12.632812 31.582031 L 8.296875 26.527344 C 8.148438 26.355469 8.171875 26.09375 8.347656 25.945312 C 8.523438 25.792969 8.785156 25.816406 8.9375 25.992188 L 13.28125 31.054688 C 13.34375 31.128906 13.378906 31.226562 13.378906 31.324219 C 13.378906 31.554688 13.195312 31.738281 12.960938 31.738281 Z M 12.960938 31.738281 " fill-opacity="1" fill-rule="nonzero"/><path fill="#F4655A" d="M 9.378906 25.128906 C 9.144531 25.128906 8.957031 24.945312 8.957031 24.714844 C 8.957031 24.484375 9.144531 24.300781 9.378906 24.300781 C 9.609375 24.300781 9.796875 24.484375 9.796875 24.714844 C 9.796875 24.945312 9.609375 25.128906 9.378906 25.128906 Z M 9.378906 25.128906 " fill-opacity="1" fill-rule="nonzero"/><g clip-path="url(#fb90353fa2)"><path fill="#F4655A" d="M 6.550781 27.328125 L 11.132812 33.28125 L 10.367188 33.863281 L 5.785156 27.90625 L 6.550781 27.328125 M 6.707031 26.164062 L 4.613281 27.75 L 10.210938 35.027344 L 12.304688 33.4375 Z M 6.707031 26.164062 " fill-opacity="1" fill-rule="nonzero"/></g><path fill="#F4655A" d="M 28.414062 27.984375 C 28.277344 27.984375 28.144531 27.917969 28.066406 27.796875 L 27.761719 27.339844 C 27.566406 27.046875 27.386719 26.753906 27.222656 26.460938 C 26.933594 25.957031 26.667969 25.421875 26.441406 24.875 C 26.4375 24.871094 26.4375 24.867188 26.433594 24.863281 C 26.242188 24.402344 26.074219 23.929688 25.929688 23.449219 C 25.511719 22.070312 25.296875 20.640625 25.296875 19.199219 C 25.296875 17.503906 24.992188 15.839844 24.386719 14.253906 L 21.855469 7.640625 C 21.75 7.363281 21.4375 7.199219 21.136719 7.289062 C 20.863281 7.371094 20.683594 7.644531 20.726562 7.929688 L 21.628906 14.144531 C 21.632812 14.164062 21.632812 14.183594 21.632812 14.203125 C 21.632812 14.433594 21.445312 14.621094 21.214844 14.621094 C 21 14.621094 20.824219 14.460938 20.800781 14.253906 L 19.898438 8.046875 C 19.796875 7.359375 20.226562 6.691406 20.898438 6.492188 C 21.03125 6.453125 21.171875 6.433594 21.308594 6.433594 C 21.894531 6.433594 22.429688 6.796875 22.640625 7.34375 L 25.167969 13.960938 C 25.808594 15.640625 26.136719 17.402344 26.136719 19.199219 C 26.136719 20.5625 26.335938 21.910156 26.730469 23.210938 C 26.867188 23.667969 27.03125 24.117188 27.214844 24.554688 C 27.214844 24.558594 27.21875 24.5625 27.21875 24.566406 C 27.433594 25.078125 27.679688 25.578125 27.953125 26.054688 C 28.105469 26.328125 28.277344 26.605469 28.460938 26.882812 L 28.765625 27.339844 C 28.890625 27.53125 28.839844 27.789062 28.644531 27.914062 C 28.574219 27.960938 28.492188 27.984375 28.414062 27.984375 Z M 28.414062 27.984375 " fill-opacity="1" fill-rule="nonzero"/><path fill="#F4655A" d="M 25.039062 32.367188 C 25.015625 32.367188 24.992188 32.367188 24.96875 32.363281 C 24.507812 32.28125 24.050781 32.148438 23.617188 31.964844 C 23.421875 31.882812 23.230469 31.789062 23.039062 31.6875 C 22.542969 31.414062 22.082031 31.074219 21.675781 30.675781 C 21.667969 30.667969 21.664062 30.664062 21.660156 30.660156 C 20.457031 29.472656 19.769531 27.820312 19.769531 26.117188 L 19.769531 15.496094 C 19.769531 14.683594 20.324219 13.988281 21.121094 13.800781 C 21.25 13.769531 21.386719 13.753906 21.527344 13.753906 C 21.996094 13.753906 22.4375 13.933594 22.769531 14.261719 C 23.101562 14.59375 23.285156 15.03125 23.285156 15.496094 L 23.285156 22.054688 C 23.285156 22.285156 23.097656 22.472656 22.867188 22.472656 C 22.632812 22.472656 22.445312 22.285156 22.445312 22.054688 L 22.445312 15.496094 C 22.445312 15.253906 22.351562 15.023438 22.175781 14.851562 C 22.003906 14.679688 21.773438 14.582031 21.527344 14.582031 C 21.453125 14.582031 21.382812 14.589844 21.3125 14.605469 C 20.898438 14.707031 20.605469 15.070312 20.605469 15.496094 L 20.605469 26.117188 C 20.605469 27.605469 21.210938 29.050781 22.261719 30.082031 C 22.265625 30.085938 22.269531 30.089844 22.277344 30.097656 C 22.625 30.4375 23.019531 30.726562 23.445312 30.960938 C 23.609375 31.050781 23.777344 31.128906 23.941406 31.199219 C 24.320312 31.359375 24.714844 31.476562 25.113281 31.542969 C 25.339844 31.582031 25.492188 31.800781 25.453125 32.023438 C 25.417969 32.226562 25.242188 32.367188 25.039062 32.367188 Z M 25.039062 32.367188 " fill-opacity="1" fill-rule="nonzero"/><path fill="#F4655A" d="M 23.242188 31.738281 C 23.011719 31.738281 22.824219 31.554688 22.824219 31.324219 C 22.824219 31.226562 22.859375 31.128906 22.921875 31.054688 L 27.269531 25.992188 C 27.417969 25.816406 27.683594 25.792969 27.859375 25.945312 C 28.035156 26.09375 28.054688 26.355469 27.90625 26.527344 L 23.566406 31.585938 C 23.488281 31.679688 23.371094 31.738281 23.242188 31.738281 Z M 23.242188 31.738281 " fill-opacity="1" fill-rule="nonzero"/><path fill="#F4655A" d="M 26.828125 25.128906 C 26.597656 25.128906 26.410156 24.945312 26.410156 24.714844 C 26.410156 24.484375 26.597656 24.300781 26.828125 24.300781 C 27.058594 24.300781 27.246094 24.484375 27.246094 24.714844 C 27.246094 24.945312 27.058594 25.128906 26.828125 25.128906 Z M 26.828125 25.128906 " fill-opacity="1" fill-rule="nonzero"/><g clip-path="url(#5f1c6a7e0e)"><path fill="#F4655A" d="M 29.652344 27.328125 L 30.417969 27.90625 L 25.835938 33.863281 L 25.070312 33.28125 L 29.652344 27.328125 M 29.496094 26.164062 L 23.898438 33.4375 L 25.992188 35.027344 L 31.589844 27.75 Z M 29.496094 26.164062 " fill-opacity="1" fill-rule="nonzero"/></g><path fill="#F4655A" d="M 18.101562 3.574219 C 17.871094 3.574219 17.683594 3.390625 17.683594 3.160156 L 17.683594 0.414062 C 17.683594 0.183594 17.871094 0 18.101562 0 C 18.332031 0 18.519531 0.183594 18.519531 0.414062 L 18.519531 3.160156 C 18.519531 3.390625 18.332031 3.574219 18.101562 3.574219 Z M 18.101562 3.574219 " fill-opacity="1" fill-rule="nonzero"/><path fill="#F4655A" d="M 11.933594 5.214844 C 11.789062 5.214844 11.648438 5.140625 11.570312 5.007812 L 10.1875 2.628906 C 10.074219 2.429688 10.140625 2.175781 10.339844 2.0625 C 10.542969 1.949219 10.796875 2.015625 10.914062 2.214844 L 12.296875 4.59375 C 12.410156 4.792969 12.34375 5.046875 12.144531 5.160156 C 12.078125 5.199219 12.003906 5.214844 11.933594 5.214844 Z M 11.933594 5.214844 " fill-opacity="1" fill-rule="nonzero"/><g clip-path="url(#8bc8dc9aae)"><path fill="#F4655A" d="M 7.417969 9.695312 C 7.347656 9.695312 7.273438 9.679688 7.210938 9.640625 L 4.8125 8.269531 C 4.613281 8.152344 4.542969 7.898438 4.660156 7.699219 C 4.777344 7.503906 5.03125 7.433594 5.230469 7.550781 L 7.628906 8.921875 C 7.828125 9.035156 7.898438 9.289062 7.78125 9.488281 C 7.703125 9.621094 7.5625 9.695312 7.417969 9.695312 Z M 7.417969 9.695312 " fill-opacity="1" fill-rule="nonzero"/></g><g clip-path="url(#5d5f76cf38)"><path fill="#F4655A" d="M 28.785156 9.695312 C 28.640625 9.695312 28.5 9.621094 28.421875 9.488281 C 28.308594 9.289062 28.375 9.035156 28.578125 8.921875 L 30.972656 7.550781 C 31.171875 7.433594 31.429688 7.503906 31.542969 7.699219 C 31.660156 7.898438 31.589844 8.152344 31.390625 8.269531 L 28.996094 9.640625 C 28.929688 9.679688 28.855469 9.695312 28.785156 9.695312 Z M 28.785156 9.695312 " fill-opacity="1" fill-rule="nonzero"/></g><path fill="#F4655A" d="M 24.269531 5.214844 C 24.199219 5.214844 24.128906 5.199219 24.0625 5.160156 C 23.859375 5.046875 23.792969 4.792969 23.90625 4.59375 L 25.292969 2.214844 C 25.40625 2.015625 25.664062 1.949219 25.863281 2.0625 C 26.0625 2.175781 26.132812 2.433594 26.015625 2.628906 L 24.632812 5.007812 C 24.554688 5.140625 24.414062 5.214844 24.269531 5.214844 Z M 24.269531 5.214844 " fill-opacity="1" fill-rule="nonzero"/></svg>